<svg width="299" height="52" viewBox="0 0 299 52" fill="none" xmlns="http://www.w3.org/2000/svg">
<g filter="url(#filter0_d_10_8)">
<path d="M0 9.99999C0 4.47714 4.47715 0 10 0H280C285.523 0 290 4.47715 290 10V32.1004C290 37.6233 285.523 42.1004 280 42.1004H10C4.47716 42.1004 0 37.6233 0 32.1004V9.99999Z" fill="#9E00FF"/>
</g>
<path d="M49.26 28L44.18 21.78V28H41.38V14.04H44.18V20.3L49.26 14.04H52.64L46.88 20.96L52.8 28H49.26ZM60.7817 16.76C62.1017 16.76 63.1684 17.18 63.9817 18.02C64.7951 18.8467 65.2017 20.0067 65.2017 21.5V28H62.4017V21.88C62.4017 21 62.1817 20.3267 61.7417 19.86C61.3017 19.38 60.7017 19.14 59.9417 19.14C59.1684 19.14 58.5551 19.38 58.1017 19.86C57.6617 20.3267 57.4417 21 57.4417 21.88V28H54.6417V16.92H57.4417V18.3C57.8151 17.82 58.2884 17.4467 58.8617 17.18C59.4484 16.9 60.0884 16.76 60.7817 16.76ZM72.7844 28.18C71.7177 28.18 70.7577 27.9467 69.9044 27.48C69.051 27 68.3777 26.3267 67.8844 25.46C67.4044 24.5933 67.1644 23.5933 67.1644 22.46C67.1644 21.3267 67.411 20.3267 67.9044 19.46C68.411 18.5933 69.0977 17.9267 69.9644 17.46C70.831 16.98 71.7977 16.74 72.8644 16.74C73.931 16.74 74.8977 16.98 75.7644 17.46C76.631 17.9267 77.311 18.5933 77.8044 19.46C78.311 20.3267 78.5644 21.3267 78.5644 22.46C78.5644 23.5933 78.3044 24.5933 77.7844 25.46C77.2777 26.3267 76.5844 27 75.7044 27.48C74.8377 27.9467 73.8644 28.18 72.7844 28.18ZM72.7844 25.74C73.291 25.74 73.7644 25.62 74.2044 25.38C74.6577 25.1267 75.0177 24.7533 75.2844 24.26C75.551 23.7667 75.6844 23.1667 75.6844 22.46C75.6844 21.4067 75.4044 20.6 74.8444 20.04C74.2977 19.4667 73.6244 19.18 72.8244 19.18C72.0244 19.18 71.351 19.4667 70.8044 20.04C70.271 20.6 70.0044 21.4067 70.0044 22.46C70.0044 23.5133 70.2644 24.3267 70.7844 24.9C71.3177 25.46 71.9844 25.74 72.7844 25.74ZM95.9783 16.92L92.7383 28H89.7183L87.6983 20.26L85.6783 28H82.6383L79.3783 16.92H82.2183L84.1783 25.36L86.2983 16.92H89.2583L91.3383 25.34L93.2983 16.92H95.9783ZM117.479 14.04V28H114.679V18.92L110.939 28H108.819L105.059 18.92V28H102.259V14.04H105.439L109.879 24.42L114.319 14.04H117.479ZM125.167 28.18C124.101 28.18 123.141 27.9467 122.287 27.48C121.434 27 120.761 26.3267 120.267 25.46C119.787 24.5933 119.547 23.5933 119.547 22.46C119.547 21.3267 119.794 20.3267 120.287 19.46C120.794 18.5933 121.481 17.9267 122.347 17.46C123.214 16.98 124.181 16.74 125.247 16.74C126.314 16.74 127.281 16.98 128.147 17.46C129.014 17.9267 129.694 18.5933 130.187 19.46C130.694 20.3267 130.947 21.3267 130.947 22.46C130.947 23.5933 130.687 24.5933 130.167 25.46C129.661 26.3267 128.967 27 128.087 27.48C127.221 27.9467 126.247 28.18 125.167 28.18ZM125.167 25.74C125.674 25.74 126.147 25.62 126.587 25.38C127.041 25.1267 127.401 24.7533 127.667 24.26C127.934 23.7667 128.067 23.1667 128.067 22.46C128.067 21.4067 127.787 20.6 127.227 20.04C126.681 19.4667 126.007 19.18 125.207 19.18C124.407 19.18 123.734 19.4667 123.187 20.04C122.654 20.6 122.387 21.4067 122.387 22.46C122.387 23.5133 122.647 24.3267 123.167 24.9C123.701 25.46 124.367 25.74 125.167 25.74ZM135.801 18.64C136.161 18.0533 136.628 17.5933 137.201 17.26C137.788 16.9267 138.454 16.76 139.201 16.76V19.7H138.461C137.581 19.7 136.914 19.9067 136.461 20.32C136.021 20.7333 135.801 21.4533 135.801 22.48V28H133.001V16.92H135.801V18.64ZM151.387 22.22C151.387 22.62 151.36 22.98 151.307 23.3H143.207C143.274 24.1 143.554 24.7267 144.047 25.18C144.54 25.6333 145.147 25.86 145.867 25.86C146.907 25.86 147.647 25.4133 148.087 24.52H151.107C150.787 25.5867 150.174 26.4667 149.267 27.16C148.36 27.84 147.247 28.18 145.927 28.18C144.86 28.18 143.9 27.9467 143.047 27.48C142.207 27 141.547 26.3267 141.067 25.46C140.6 24.5933 140.367 23.5933 140.367 22.46C140.367 21.3133 140.6 20.3067 141.067 19.44C141.534 18.5733 142.187 17.9067 143.027 17.44C143.867 16.9733 144.834 16.74 145.927 16.74C146.98 16.74 147.92 16.9667 148.747 17.42C149.587 17.8733 150.234 18.52 150.687 19.36C151.154 20.1867 151.387 21.14 151.387 22.22ZM148.487 21.42C148.474 20.7 148.214 20.1267 147.707 19.7C147.2 19.26 146.58 19.04 145.847 19.04C145.154 19.04 144.567 19.2533 144.087 19.68C143.62 20.0933 143.334 20.6733 143.227 21.42H148.487ZM166.756 25.34H161.196L160.276 28H157.336L162.356 14.02H165.616L170.636 28H167.676L166.756 25.34ZM165.996 23.1L163.976 17.26L161.956 23.1H165.996ZM175.313 18.54C175.673 18.0067 176.166 17.5733 176.793 17.24C177.433 16.9067 178.159 16.74 178.973 16.74C179.919 16.74 180.773 16.9733 181.533 17.44C182.306 17.9067 182.913 18.5733 183.353 19.44C183.806 20.2933 184.033 21.2867 184.033 22.42C184.033 23.5533 183.806 24.56 183.353 25.44C182.913 26.3067 182.306 26.98 181.533 27.46C180.773 27.94 179.919 28.18 178.973 28.18C178.146 28.18 177.419 28.02 176.793 27.7C176.179 27.3667 175.686 26.94 175.313 26.42V28H172.513V13.2H175.313V18.54ZM181.173 22.42C181.173 21.7533 181.033 21.18 180.753 20.7C180.486 20.2067 180.126 19.8333 179.673 19.58C179.233 19.3267 178.753 19.2 178.233 19.2C177.726 19.2 177.246 19.3333 176.793 19.6C176.353 19.8533 175.993 20.2267 175.713 20.72C175.446 21.2133 175.313 21.7933 175.313 22.46C175.313 23.1267 175.446 23.7067 175.713 24.2C175.993 24.6933 176.353 25.0733 176.793 25.34C177.246 25.5933 177.726 25.72 178.233 25.72C178.753 25.72 179.233 25.5867 179.673 25.32C180.126 25.0533 180.486 24.6733 180.753 24.18C181.033 23.6867 181.173 23.1 181.173 22.42ZM190.988 28.18C189.921 28.18 188.961 27.9467 188.108 27.48C187.254 27 186.581 26.3267 186.088 25.46C185.608 24.5933 185.368 23.5933 185.368 22.46C185.368 21.3267 185.614 20.3267 186.108 19.46C186.614 18.5933 187.301 17.9267 188.168 17.46C189.034 16.98 190.001 16.74 191.068 16.74C192.134 16.74 193.101 16.98 193.968 17.46C194.834 17.9267 195.514 18.5933 196.008 19.46C196.514 20.3267 196.768 21.3267 196.768 22.46C196.768 23.5933 196.508 24.5933 195.987 25.46C195.481 26.3267 194.788 27 193.908 27.48C193.041 27.9467 192.068 28.18 190.988 28.18ZM190.988 25.74C191.494 25.74 191.968 25.62 192.408 25.38C192.861 25.1267 193.221 24.7533 193.488 24.26C193.754 23.7667 193.888 23.1667 193.888 22.46C193.888 21.4067 193.608 20.6 193.048 20.04C192.501 19.4667 191.828 19.18 191.028 19.18C190.228 19.18 189.554 19.4667 189.008 20.04C188.474 20.6 188.208 21.4067 188.208 22.46C188.208 23.5133 188.468 24.3267 188.988 24.9C189.521 25.46 190.188 25.74 190.988 25.74ZM209.281 16.92V28H206.461V26.6C206.101 27.08 205.628 27.46 205.041 27.74C204.468 28.0067 203.841 28.14 203.161 28.14C202.295 28.14 201.528 27.96 200.861 27.6C200.195 27.2267 199.668 26.6867 199.281 25.98C198.908 25.26 198.721 24.4067 198.721 23.42V16.92H201.521V23.02C201.521 23.9 201.741 24.58 202.181 25.06C202.621 25.5267 203.221 25.76 203.981 25.76C204.755 25.76 205.361 25.5267 205.801 25.06C206.241 24.58 206.461 23.9 206.461 23.02V16.92H209.281ZM215.304 19.22V24.58C215.304 24.9533 215.391 25.2267 215.564 25.4C215.751 25.56 216.057 25.64 216.484 25.64H217.784V28H216.024C213.664 28 212.484 26.8533 212.484 24.56V19.22H211.164V16.92H212.484V14.18H215.304V16.92H217.784V19.22H215.304ZM239.784 14.04V28H236.984V18.92L233.244 28H231.124L227.364 18.92V28H224.564V14.04H227.744L232.184 24.42L236.624 14.04H239.784ZM252.852 22.22C252.852 22.62 252.825 22.98 252.772 23.3H244.672C244.739 24.1 245.019 24.7267 245.512 25.18C246.005 25.6333 246.612 25.86 247.332 25.86C248.372 25.86 249.112 25.4133 249.552 24.52H252.572C252.252 25.5867 251.639 26.4667 250.732 27.16C249.825 27.84 248.712 28.18 247.392 28.18C246.325 28.18 245.365 27.9467 244.512 27.48C243.672 27 243.012 26.3267 242.532 25.46C242.065 24.5933 241.832 23.5933 241.832 22.46C241.832 21.3133 242.065 20.3067 242.532 19.44C242.999 18.5733 243.652 17.9067 244.492 17.44C245.332 16.9733 246.299 16.74 247.392 16.74C248.445 16.74 249.385 16.9667 250.212 17.42C251.052 17.8733 251.699 18.52 252.152 19.36C252.619 20.1867 252.852 21.14 252.852 22.22ZM249.952 21.42C249.939 20.7 249.679 20.1267 249.172 19.7C248.665 19.26 248.045 19.04 247.312 19.04C246.619 19.04 246.032 19.2533 245.552 19.68C245.085 20.0933 244.799 20.6733 244.692 21.42H249.952Z" fill="#F8F9FA"/>
<defs>
<filter id="filter0_d_10_8" x="0" y="0" width="299" height="51.1004" filterUnits="userSpaceOnUse" color-interpolation-filters="sRGB">
<feFlood flood-opacity="0" result="BackgroundImageFix"/>
<feColorMatrix in="SourceAlpha" type="matrix" values="0 0 0 0 0 0 0 0 0 0 0 0 0 0 0 0 0 0 127 0" result="hardAlpha"/>
<feOffset dx="5" dy="5"/>
<feGaussianBlur stdDeviation="2"/>
<feComposite in2="hardAlpha" operator="out"/>
<feColorMatrix type="matrix" values="0 0 0 0 0 0 0 0 0 0 0 0 0 0 0 0 0 0 0.25 0"/>
<feBlend mode="normal" in2="BackgroundImageFix" result="effect1_dropShadow_10_8"/>
<feBlend mode="normal" in="SourceGraphic" in2="effect1_dropShadow_10_8" result="shape"/>
</filter>
</defs>
</svg>
