<svg width="647" height="607" viewBox="0 0 647 607" fill="none" xmlns="http://www.w3.org/2000/svg">
<path d="M309.214 486L361.428 575.2H257L309.214 486Z" fill="#2A2A2A"/>
<path d="M511.214 118L563.428 207.2H459L511.214 118Z" fill="#0B0B0B"/>
<path d="M179.976 203.135L90.7962 50.7836H269.156L179.976 203.135Z" fill="#242424"/>
<path d="M439.976 203.135L350.796 50.7836H529.156L439.976 203.135Z" fill="#9E00FF"/>
<path d="M542.51 381.187L452.868 228.047H632.152L542.51 381.187Z" fill="#292929"/>
<path d="M180.086 607L96.4509 465.25H263.721L180.086 607Z" fill="#9E00FF"/>
<path d="M433.573 607L349.938 465.25H517.208L433.573 607Z" fill="#222222"/>
<path d="M83.635 366.75L0 225H167.27L83.635 366.75Z" fill="#9E00FF"/>
<path d="M107.214 117L159.428 206.2H55L107.214 117Z" fill="#282828"/>
<path d="M550 439L309 20V439H550Z" fill="#0F0F0F"/>
<path d="M68 439L309 20V439H68Z" fill="#1B1B1B"/>
</svg>
