<svg width="552" height="667" viewBox="0 0 552 667" fill="none" xmlns="http://www.w3.org/2000/svg">
<path d="M265.5 504.679L314.43 593.879H216.57L265.5 504.679Z" fill="#F8F9FA"/>
<path d="M454.93 95L503.861 184.2H406L454.93 95Z" fill="#343A40"/>
<path d="M264 38.9429L492.631 455.737H35.3693L264 38.9429Z" fill="#F8F9FB"/>
<path d="M368 666.239L262.345 473.63H473.655L368 666.239Z" fill="#343A40"/>
<path d="M149.5 203.135L65.9286 50.7836H233.071L149.5 203.135Z" fill="#F8F9FA"/>
<path d="M455 350.486L370.996 197.346H539.004L455 350.486Z" fill="#343A40"/>
<path d="M143.5 625L65.1247 483.25H221.875L143.5 625Z" fill="#9E00FF"/>
<path d="M382.5 191L304.125 49.25H460.875L382.5 191Z" fill="#9E00FF"/>
<path d="M70.9304 102.094L119.861 191.294H22L70.9304 102.094Z" fill="#F8F9FA"/>
<path d="M490 456.842L264 37.9429V456.842H490Z" fill="#343A40"/>
</svg>
