<svg width="149" height="44" viewBox="0 0 149 44" fill="none" xmlns="http://www.w3.org/2000/svg">
<path d="M20.6357 1.008V18H15.3317V9.528L12.7157 18H8.15572L5.53972 9.528V18H0.211719V1.008H6.73972L10.4837 11.208L14.1317 1.008H20.6357ZM39.9358 15.432H34.2718L33.4318 18H27.8398L34.0558 1.008H40.1998L46.3918 18H40.7758L39.9358 15.432ZM38.6398 11.424L37.1038 6.696L35.5678 11.424H38.6398ZM62.1463 18L58.9543 11.904H58.9303V18H53.6023V1.008H61.5223C62.8983 1.008 64.0743 1.256 65.0503 1.752C66.0263 2.232 66.7543 2.896 67.2343 3.744C67.7303 4.576 67.9783 5.52 67.9783 6.576C67.9783 7.712 67.6583 8.72 67.0183 9.6C66.3943 10.48 65.4903 11.112 64.3063 11.496L68.0023 18H62.1463ZM58.9303 8.352H61.0423C61.5543 8.352 61.9383 8.24 62.1943 8.016C62.4503 7.776 62.5783 7.408 62.5783 6.912C62.5783 6.464 62.4423 6.112 62.1703 5.856C61.9143 5.6 61.5383 5.472 61.0423 5.472H58.9303V8.352ZM75.2005 9.48C75.2005 7.8 75.5365 6.304 76.2085 4.992C76.8965 3.68 77.8725 2.664 79.1365 1.944C80.4005 1.208 81.8885 0.839999 83.6005 0.839999C85.0725 0.839999 86.3845 1.12 87.5365 1.68C88.7045 2.224 89.6485 3 90.3685 4.008C91.1045 5.016 91.5925 6.192 91.8325 7.536H86.2165C85.9605 6.976 85.5925 6.544 85.1125 6.24C84.6485 5.92 84.1125 5.76 83.5045 5.76C82.6085 5.76 81.8965 6.096 81.3685 6.768C80.8565 7.44 80.6005 8.344 80.6005 9.48C80.6005 10.616 80.8565 11.52 81.3685 12.192C81.8965 12.864 82.6085 13.2 83.5045 13.2C84.1125 13.2 84.6485 13.048 85.1125 12.744C85.5925 12.424 85.9605 11.984 86.2165 11.424H91.8325C91.5925 12.768 91.1045 13.944 90.3685 14.952C89.6485 15.96 88.7045 16.744 87.5365 17.304C86.3845 17.848 85.0725 18.12 83.6005 18.12C81.8885 18.12 80.4005 17.76 79.1365 17.04C77.8725 16.304 76.8965 15.28 76.2085 13.968C75.5365 12.656 75.2005 11.16 75.2005 9.48ZM105.079 1.008V18H99.7508V1.008H105.079ZM124.381 15.432H118.717L117.877 18H112.285L118.501 1.008H124.645L130.837 18H125.221L124.381 15.432ZM123.085 11.424L121.549 6.696L120.013 11.424H123.085ZM143.376 13.968H148.512V18H138.048V1.008H143.376V13.968Z" fill="#9E00FF"/>
<path d="M15.6205 39.016H7.98847L6.52447 43H4.74847L10.8685 26.44H12.7645L18.8605 43H17.0845L15.6205 39.016ZM15.1165 37.624L11.8045 28.552L8.49247 37.624H15.1165ZM35.4047 34.336C36.3487 34.512 37.1487 34.992 37.8047 35.776C38.4607 36.56 38.7887 37.472 38.7887 38.512C38.7887 39.36 38.5727 40.128 38.1407 40.816C37.7247 41.488 37.1087 42.024 36.2927 42.424C35.4767 42.808 34.5007 43 33.3647 43H27.5567V26.224H33.1967C34.8927 26.224 36.1807 26.616 37.0607 27.4C37.9567 28.184 38.4047 29.2 38.4047 30.448C38.4047 31.488 38.1247 32.336 37.5647 32.992C37.0047 33.632 36.2847 34.08 35.4047 34.336ZM29.2367 33.64H33.1487C34.2847 33.64 35.1567 33.376 35.7647 32.848C36.3887 32.304 36.7007 31.56 36.7007 30.616C36.7007 29.688 36.3887 28.96 35.7647 28.432C35.1567 27.904 34.2607 27.64 33.0767 27.64H29.2367V33.64ZM33.2447 41.584C34.4607 41.584 35.4047 41.296 36.0767 40.72C36.7647 40.144 37.1087 39.352 37.1087 38.344C37.1087 37.336 36.7487 36.536 36.0287 35.944C35.3247 35.336 34.3727 35.032 33.1727 35.032H29.2367V41.584H33.2447ZM57.597 39.016H49.965L48.501 43H46.725L52.845 26.44H54.741L60.837 43H59.061L57.597 39.016ZM57.093 37.624L53.781 28.552L50.469 37.624H57.093ZM74.6213 43.168C73.5173 43.168 72.5413 42.976 71.6933 42.592C70.8613 42.208 70.2053 41.672 69.7253 40.984C69.2453 40.296 68.9893 39.528 68.9573 38.68H70.7333C70.8133 39.496 71.1733 40.216 71.8133 40.84C72.4533 41.448 73.3893 41.752 74.6213 41.752C75.7573 41.752 76.6533 41.464 77.3093 40.888C77.9813 40.296 78.3173 39.552 78.3173 38.656C78.3173 37.936 78.1333 37.36 77.7653 36.928C77.3973 36.48 76.9413 36.152 76.3973 35.944C75.8533 35.72 75.1013 35.48 74.1413 35.224C73.0213 34.92 72.1333 34.624 71.4773 34.336C70.8213 34.048 70.2613 33.6 69.7973 32.992C69.3333 32.384 69.1013 31.56 69.1013 30.52C69.1013 29.656 69.3253 28.888 69.7733 28.216C70.2213 27.528 70.8533 26.992 71.6693 26.608C72.4853 26.224 73.4213 26.032 74.4773 26.032C76.0293 26.032 77.2773 26.416 78.2213 27.184C79.1813 27.936 79.7333 28.912 79.8773 30.112H78.0533C77.9413 29.424 77.5653 28.816 76.9253 28.288C76.2853 27.744 75.4213 27.472 74.3333 27.472C73.3253 27.472 72.4853 27.744 71.8133 28.288C71.1413 28.816 70.8053 29.544 70.8053 30.472C70.8053 31.176 70.9893 31.744 71.3573 32.176C71.7253 32.608 72.1813 32.936 72.7253 33.16C73.2853 33.384 74.0373 33.624 74.9813 33.88C76.0693 34.184 76.9493 34.488 77.6213 34.792C78.2933 35.08 78.8613 35.528 79.3253 36.136C79.7893 36.744 80.0213 37.56 80.0213 38.584C80.0213 39.368 79.8133 40.112 79.3973 40.816C78.9813 41.52 78.3653 42.088 77.5493 42.52C76.7333 42.952 75.7573 43.168 74.6213 43.168ZM96.8037 43.168C95.2517 43.168 93.8437 42.808 92.5797 42.088C91.3157 41.352 90.3157 40.336 89.5797 39.04C88.8597 37.728 88.4997 36.248 88.4997 34.6C88.4997 32.952 88.8597 31.48 89.5797 30.184C90.3157 28.872 91.3157 27.856 92.5797 27.136C93.8437 26.4 95.2517 26.032 96.8037 26.032C98.3717 26.032 99.7877 26.4 101.052 27.136C102.316 27.856 103.308 28.872 104.028 30.184C104.748 31.48 105.108 32.952 105.108 34.6C105.108 36.248 104.748 37.728 104.028 39.04C103.308 40.336 102.316 41.352 101.052 42.088C99.7877 42.808 98.3717 43.168 96.8037 43.168ZM96.8037 41.704C98.0517 41.704 99.1717 41.416 100.164 40.84C101.156 40.264 101.94 39.44 102.516 38.368C103.092 37.28 103.38 36.024 103.38 34.6C103.38 33.176 103.092 31.928 102.516 30.856C101.94 29.784 101.156 28.96 100.164 28.384C99.1717 27.808 98.0517 27.52 96.8037 27.52C95.5557 27.52 94.4357 27.808 93.4437 28.384C92.4517 28.96 91.6677 29.784 91.0917 30.856C90.5157 31.928 90.2277 33.176 90.2277 34.6C90.2277 36.024 90.5157 37.28 91.0917 38.368C91.6677 39.44 92.4517 40.264 93.4437 40.84C94.4357 41.416 95.5557 41.704 96.8037 41.704ZM115.862 41.632H121.886V43H114.182V26.224H115.862V41.632ZM140.003 39.016H132.371L130.907 43H129.131L135.251 26.44H137.147L143.243 43H141.467L140.003 39.016ZM139.499 37.624L136.187 28.552L132.875 37.624H139.499Z" fill="#CED4DA"/>
</svg>
