<svg width="230" height="39" viewBox="0 0 230 39" fill="none" xmlns="http://www.w3.org/2000/svg">
<g filter="url(#filter0_d_166_18)">
<rect x="4" y="0.911133" width="222" height="30" rx="10" fill="#9E00FF"/>
</g>
<path d="M54.962 19.9111V10.6811H58.316C59.3213 10.6811 60.162 10.8891 60.838 11.3051C61.514 11.7125 62.021 12.2671 62.359 12.9691C62.697 13.6625 62.866 14.4338 62.866 15.2831C62.866 16.2191 62.6797 17.0338 62.307 17.7271C61.9343 18.4205 61.4057 18.9578 60.721 19.3391C60.045 19.7205 59.2433 19.9111 58.316 19.9111H54.962ZM61.059 15.2831C61.059 14.6851 60.9507 14.1608 60.734 13.7101C60.5173 13.2508 60.2053 12.8955 59.798 12.6441C59.3907 12.3841 58.8967 12.2541 58.316 12.2541H56.756V18.3381H58.316C58.9053 18.3381 59.4037 18.2081 59.811 17.9481C60.2183 17.6795 60.526 17.3155 60.734 16.8561C60.9507 16.3881 61.059 15.8638 61.059 15.2831ZM67.2447 20.0411C66.69 20.0411 66.1917 19.9501 65.7497 19.7681C65.3077 19.5775 64.9307 19.3175 64.6187 18.9881C64.3153 18.6588 64.0813 18.2818 63.9167 17.8571C63.752 17.4325 63.6697 16.9861 63.6697 16.5181C63.6697 16.0415 63.752 15.5908 63.9167 15.1661C64.0813 14.7415 64.3153 14.3645 64.6187 14.0351C64.9307 13.7058 65.3077 13.4501 65.7497 13.2681C66.1917 13.0775 66.69 12.9821 67.2447 12.9821C67.7993 12.9821 68.2933 13.0775 68.7267 13.2681C69.1687 13.4501 69.5457 13.7058 69.8577 14.0351C70.1697 14.3645 70.4037 14.7415 70.5597 15.1661C70.7243 15.5908 70.8067 16.0415 70.8067 16.5181C70.8067 16.9861 70.7243 17.4325 70.5597 17.8571C70.4037 18.2818 70.1697 18.6588 69.8577 18.9881C69.5543 19.3175 69.1817 19.5775 68.7397 19.7681C68.2977 19.9501 67.7993 20.0411 67.2447 20.0411ZM65.4637 16.5181C65.4637 16.9168 65.5417 17.2721 65.6977 17.5841C65.8537 17.8875 66.066 18.1258 66.3347 18.2991C66.6033 18.4725 66.9067 18.5591 67.2447 18.5591C67.574 18.5591 67.873 18.4725 68.1417 18.2991C68.4103 18.1171 68.6227 17.8745 68.7787 17.5711C68.9433 17.2591 69.0257 16.9038 69.0257 16.5051C69.0257 16.1151 68.9433 15.7641 68.7787 15.4521C68.6227 15.1401 68.4103 14.8975 68.1417 14.7241C67.873 14.5508 67.574 14.4641 67.2447 14.4641C66.9067 14.4641 66.6033 14.5551 66.3347 14.7371C66.066 14.9105 65.8537 15.1531 65.6977 15.4651C65.5417 15.7685 65.4637 16.1195 65.4637 16.5181ZM80.2039 13.0991H81.8549L79.0079 19.9111H77.5519L76.4079 16.9861L75.2899 19.9111H73.8209L70.9869 13.0991H72.6249L74.6529 18.2471L75.4459 16.0241L74.2629 13.1121H75.7059L76.4079 15.1921L77.1229 13.1121H78.5659L77.3829 16.0241L78.1889 18.2471L80.2039 13.0991ZM88.9902 19.9111H87.2482V16.0891C87.2482 15.5431 87.1529 15.1445 86.9622 14.8931C86.7715 14.6418 86.5072 14.5161 86.1692 14.5161C85.9352 14.5161 85.6969 14.5768 85.4542 14.6981C85.2202 14.8195 85.0079 14.9885 84.8172 15.2051C84.6265 15.4131 84.4879 15.6558 84.4012 15.9331V19.9111H82.6592V13.0991H84.2322V14.3601C84.4055 14.0655 84.6265 13.8185 84.8952 13.6191C85.1639 13.4111 85.4715 13.2551 85.8182 13.1511C86.1735 13.0385 86.5462 12.9821 86.9362 12.9821C87.3609 12.9821 87.7075 13.0601 87.9762 13.2161C88.2535 13.3635 88.4615 13.5671 88.6002 13.8271C88.7475 14.0785 88.8472 14.3645 88.8992 14.6851C88.9599 15.0058 88.9902 15.3308 88.9902 15.6601V19.9111ZM90.4919 10.4211H92.2339V17.7271C92.2339 18.0391 92.2859 18.2515 92.3899 18.3641C92.4939 18.4681 92.6369 18.5201 92.8189 18.5201C92.9576 18.5201 93.1006 18.5028 93.2479 18.4681C93.3952 18.4335 93.5252 18.3901 93.6379 18.3381L93.8719 19.6641C93.6379 19.7768 93.3649 19.8635 93.0529 19.9241C92.7409 19.9848 92.4592 20.0151 92.2079 20.0151C91.6619 20.0151 91.2372 19.8721 90.9339 19.5861C90.6392 19.2915 90.4919 18.8755 90.4919 18.3381V10.4211ZM97.7769 20.0411C97.2222 20.0411 96.7239 19.9501 96.2819 19.7681C95.8399 19.5775 95.4629 19.3175 95.1509 18.9881C94.8476 18.6588 94.6136 18.2818 94.4489 17.8571C94.2842 17.4325 94.2019 16.9861 94.2019 16.5181C94.2019 16.0415 94.2842 15.5908 94.4489 15.1661C94.6136 14.7415 94.8476 14.3645 95.1509 14.0351C95.4629 13.7058 95.8399 13.4501 96.2819 13.2681C96.7239 13.0775 97.2222 12.9821 97.7769 12.9821C98.3316 12.9821 98.8256 13.0775 99.2589 13.2681C99.7009 13.4501 100.078 13.7058 100.39 14.0351C100.702 14.3645 100.936 14.7415 101.092 15.1661C101.257 15.5908 101.339 16.0415 101.339 16.5181C101.339 16.9861 101.257 17.4325 101.092 17.8571C100.936 18.2818 100.702 18.6588 100.39 18.9881C100.087 19.3175 99.7139 19.5775 99.2719 19.7681C98.8299 19.9501 98.3316 20.0411 97.7769 20.0411ZM95.9959 16.5181C95.9959 16.9168 96.0739 17.2721 96.2299 17.5841C96.3859 17.8875 96.5982 18.1258 96.8669 18.2991C97.1356 18.4725 97.4389 18.5591 97.7769 18.5591C98.1062 18.5591 98.4052 18.4725 98.6739 18.2991C98.9426 18.1171 99.1549 17.8745 99.3109 17.5711C99.4756 17.2591 99.5579 16.9038 99.5579 16.5051C99.5579 16.1151 99.4756 15.7641 99.3109 15.4521C99.1549 15.1401 98.9426 14.8975 98.6739 14.7241C98.4052 14.5508 98.1062 14.4641 97.7769 14.4641C97.4389 14.4641 97.1356 14.5551 96.8669 14.7371C96.5982 14.9105 96.3859 15.1531 96.2299 15.4651C96.0739 15.7685 95.9959 16.1195 95.9959 16.5181ZM102.047 17.8961C102.047 17.4541 102.168 17.0685 102.411 16.7391C102.662 16.4011 103.009 16.1411 103.451 15.9591C103.893 15.7771 104.4 15.6861 104.972 15.6861C105.258 15.6861 105.548 15.7078 105.843 15.7511C106.137 15.7945 106.393 15.8638 106.61 15.9591V15.5951C106.61 15.1618 106.48 14.8281 106.22 14.5941C105.968 14.3601 105.591 14.2431 105.089 14.2431C104.716 14.2431 104.361 14.3081 104.023 14.4381C103.685 14.5681 103.329 14.7588 102.957 15.0101L102.398 13.8661C102.848 13.5715 103.308 13.3505 103.776 13.2031C104.252 13.0558 104.751 12.9821 105.271 12.9821C106.241 12.9821 106.995 13.2248 107.533 13.7101C108.079 14.1955 108.352 14.8888 108.352 15.7901V17.9611C108.352 18.1431 108.382 18.2731 108.443 18.3511C108.512 18.4291 108.62 18.4768 108.768 18.4941V19.9111C108.612 19.9371 108.469 19.9588 108.339 19.9761C108.217 19.9935 108.113 20.0021 108.027 20.0021C107.68 20.0021 107.416 19.9241 107.234 19.7681C107.06 19.6121 106.952 19.4215 106.909 19.1961L106.87 18.8451C106.575 19.2265 106.207 19.5211 105.765 19.7291C105.323 19.9371 104.872 20.0411 104.413 20.0411C103.962 20.0411 103.555 19.9501 103.191 19.7681C102.835 19.5775 102.554 19.3218 102.346 19.0011C102.146 18.6718 102.047 18.3035 102.047 17.8961ZM106.285 18.2471C106.38 18.1431 106.458 18.0391 106.519 17.9351C106.579 17.8311 106.61 17.7358 106.61 17.6491V16.9601C106.402 16.8735 106.176 16.8085 105.934 16.7651C105.691 16.7131 105.461 16.6871 105.245 16.6871C104.794 16.6871 104.421 16.7868 104.127 16.9861C103.841 17.1768 103.698 17.4325 103.698 17.7531C103.698 17.9265 103.745 18.0911 103.841 18.2471C103.936 18.4031 104.075 18.5288 104.257 18.6241C104.439 18.7195 104.655 18.7671 104.907 18.7671C105.167 18.7671 105.422 18.7195 105.674 18.6241C105.925 18.5201 106.129 18.3945 106.285 18.2471ZM109.564 16.5051C109.564 15.8465 109.694 15.2528 109.954 14.7241C110.214 14.1868 110.573 13.7621 111.033 13.4501C111.492 13.1381 112.016 12.9821 112.606 12.9821C113.108 12.9821 113.559 13.1078 113.958 13.3591C114.365 13.6018 114.681 13.9138 114.907 14.2951V10.4211H116.649V17.9611C116.649 18.1431 116.679 18.2731 116.74 18.3511C116.8 18.4291 116.904 18.4768 117.052 18.4941V19.9111C116.748 19.9718 116.501 20.0021 116.311 20.0021C115.999 20.0021 115.739 19.9241 115.531 19.7681C115.331 19.6121 115.219 19.4085 115.193 19.1571L115.167 18.7281C114.915 19.1528 114.573 19.4778 114.14 19.7031C113.715 19.9285 113.269 20.0411 112.801 20.0411C112.333 20.0411 111.899 19.9501 111.501 19.7681C111.111 19.5861 110.768 19.3348 110.474 19.0141C110.188 18.6935 109.962 18.3208 109.798 17.8961C109.642 17.4628 109.564 16.9991 109.564 16.5051ZM114.907 17.4151V15.7901C114.82 15.5388 114.681 15.3135 114.491 15.1141C114.3 14.9148 114.088 14.7588 113.854 14.6461C113.62 14.5248 113.386 14.4641 113.152 14.4641C112.883 14.4641 112.64 14.5205 112.424 14.6331C112.207 14.7458 112.016 14.8975 111.852 15.0881C111.696 15.2788 111.574 15.4998 111.488 15.7511C111.41 16.0025 111.371 16.2668 111.371 16.5441C111.371 16.8215 111.414 17.0858 111.501 17.3371C111.596 17.5798 111.73 17.7921 111.904 17.9741C112.077 18.1561 112.276 18.2991 112.502 18.4031C112.736 18.5071 112.987 18.5591 113.256 18.5591C113.42 18.5591 113.585 18.5331 113.75 18.4811C113.923 18.4205 114.083 18.3425 114.231 18.2471C114.387 18.1431 114.521 18.0218 114.634 17.8831C114.755 17.7358 114.846 17.5798 114.907 17.4151ZM121.65 19.9111V10.6811H125.732C126.157 10.6811 126.547 10.7678 126.902 10.9411C127.266 11.1145 127.578 11.3485 127.838 11.6431C128.107 11.9378 128.311 12.2671 128.449 12.6311C128.597 12.9951 128.67 13.3678 128.67 13.7491C128.67 14.1391 128.601 14.5161 128.462 14.8801C128.332 15.2355 128.142 15.5475 127.89 15.8161C127.639 16.0848 127.344 16.2928 127.006 16.4401L129.112 19.9111H127.136L125.238 16.8171H123.444V19.9111H121.65ZM123.444 15.2441H125.693C125.919 15.2441 126.118 15.1791 126.291 15.0491C126.465 14.9105 126.603 14.7285 126.707 14.5031C126.811 14.2778 126.863 14.0265 126.863 13.7491C126.863 13.4545 126.803 13.1988 126.681 12.9821C126.56 12.7568 126.404 12.5791 126.213 12.4491C126.031 12.3191 125.832 12.2541 125.615 12.2541H123.444V15.2441ZM133.057 20.0411C132.511 20.0411 132.017 19.9501 131.575 19.7681C131.133 19.5775 130.756 19.3218 130.444 19.0011C130.132 18.6718 129.89 18.2991 129.716 17.8831C129.552 17.4585 129.469 17.0121 129.469 16.5441C129.469 15.8941 129.612 15.3005 129.898 14.7631C130.193 14.2258 130.609 13.7968 131.146 13.4761C131.692 13.1468 132.334 12.9821 133.07 12.9821C133.816 12.9821 134.453 13.1468 134.981 13.4761C135.51 13.7968 135.913 14.2258 136.19 14.7631C136.476 15.2918 136.619 15.8638 136.619 16.4791C136.619 16.5831 136.615 16.6915 136.606 16.8041C136.598 16.9081 136.589 16.9948 136.58 17.0641H131.315C131.35 17.4108 131.45 17.7141 131.614 17.9741C131.788 18.2341 132.004 18.4335 132.264 18.5721C132.533 18.7021 132.819 18.7671 133.122 18.7671C133.469 18.7671 133.794 18.6848 134.097 18.5201C134.409 18.3468 134.622 18.1215 134.734 17.8441L136.229 18.2601C136.065 18.6068 135.826 18.9145 135.514 19.1831C135.211 19.4518 134.851 19.6641 134.435 19.8201C134.019 19.9675 133.56 20.0411 133.057 20.0411ZM131.276 15.9591H134.838C134.804 15.6125 134.704 15.3135 134.539 15.0621C134.383 14.8021 134.175 14.6028 133.915 14.4641C133.655 14.3168 133.365 14.2431 133.044 14.2431C132.732 14.2431 132.446 14.3168 132.186 14.4641C131.935 14.6028 131.727 14.8021 131.562 15.0621C131.406 15.3135 131.311 15.6125 131.276 15.9591ZM140.19 20.0411C139.609 20.0411 139.054 19.9458 138.526 19.7551C137.997 19.5645 137.542 19.2828 137.161 18.9101L137.785 17.7791C138.192 18.1085 138.591 18.3511 138.981 18.5071C139.379 18.6631 139.761 18.7411 140.125 18.7411C140.463 18.7411 140.731 18.6805 140.931 18.5591C141.139 18.4378 141.243 18.2558 141.243 18.0131C141.243 17.8485 141.186 17.7228 141.074 17.6361C140.961 17.5408 140.796 17.4585 140.58 17.3891C140.372 17.3198 140.116 17.2418 139.813 17.1551C139.31 16.9905 138.89 16.8301 138.552 16.6741C138.214 16.5181 137.958 16.3231 137.785 16.0891C137.62 15.8465 137.538 15.5388 137.538 15.1661C137.538 14.7155 137.65 14.3298 137.876 14.0091C138.11 13.6798 138.43 13.4241 138.838 13.2421C139.254 13.0601 139.739 12.9691 140.294 12.9691C140.779 12.9691 141.238 13.0471 141.672 13.2031C142.105 13.3505 142.499 13.5931 142.855 13.9311L142.153 15.0361C141.806 14.7675 141.477 14.5725 141.165 14.4511C140.853 14.3211 140.536 14.2561 140.216 14.2561C140.034 14.2561 139.86 14.2778 139.696 14.3211C139.54 14.3645 139.41 14.4381 139.306 14.5421C139.21 14.6375 139.163 14.7761 139.163 14.9581C139.163 15.1228 139.206 15.2528 139.293 15.3481C139.388 15.4348 139.527 15.5128 139.709 15.5821C139.899 15.6515 140.129 15.7295 140.398 15.8161C140.944 15.9721 141.403 16.1325 141.776 16.2971C142.157 16.4618 142.443 16.6655 142.634 16.9081C142.824 17.1421 142.92 17.4671 142.92 17.8831C142.92 18.5591 142.673 19.0878 142.179 19.4691C141.685 19.8505 141.022 20.0411 140.19 20.0411ZM144.04 17.3631V13.0991H145.782V16.9861C145.782 17.5061 145.877 17.9005 146.068 18.1691C146.258 18.4291 146.54 18.5591 146.913 18.5591C147.138 18.5591 147.359 18.5158 147.576 18.4291C147.801 18.3338 148.005 18.1951 148.187 18.0131C148.377 17.8311 148.538 17.6015 148.668 17.3241V13.0991H150.41V17.9611C150.41 18.1431 150.44 18.2731 150.501 18.3511C150.57 18.4291 150.678 18.4768 150.826 18.4941V19.9111C150.652 19.9371 150.505 19.9545 150.384 19.9631C150.271 19.9805 150.167 19.9891 150.072 19.9891C149.76 19.9891 149.504 19.9198 149.305 19.7811C149.114 19.6338 149.001 19.4345 148.967 19.1831L148.928 18.6371C148.624 19.0965 148.234 19.4475 147.758 19.6901C147.281 19.9241 146.757 20.0411 146.185 20.0411C145.483 20.0411 144.95 19.8158 144.586 19.3651C144.222 18.9058 144.04 18.2385 144.04 17.3631ZM162.723 19.9111H160.981V16.0891C160.981 15.5518 160.885 15.1575 160.695 14.9061C160.513 14.6461 160.257 14.5161 159.928 14.5161C159.59 14.5161 159.265 14.6505 158.953 14.9191C158.649 15.1791 158.433 15.5215 158.303 15.9461V19.9111H156.561V16.0891C156.561 15.5431 156.465 15.1445 156.275 14.8931C156.093 14.6418 155.837 14.5161 155.508 14.5161C155.17 14.5161 154.845 14.6461 154.533 14.9061C154.229 15.1661 154.013 15.5085 153.883 15.9331V19.9111H152.141V13.0991H153.714V14.3601C153.974 13.9181 154.32 13.5801 154.754 13.3461C155.187 13.1035 155.685 12.9821 156.249 12.9821C156.812 12.9821 157.25 13.1208 157.562 13.3981C157.882 13.6755 158.086 14.0178 158.173 14.4251C158.45 13.9571 158.801 13.6018 159.226 13.3591C159.659 13.1078 160.144 12.9821 160.682 12.9821C161.106 12.9821 161.449 13.0601 161.709 13.2161C161.977 13.3635 162.185 13.5671 162.333 13.8271C162.48 14.0785 162.58 14.3645 162.632 14.6851C162.692 15.0058 162.723 15.3308 162.723 15.6601V19.9111ZM167.398 20.0411C166.852 20.0411 166.358 19.9501 165.916 19.7681C165.474 19.5775 165.097 19.3218 164.785 19.0011C164.473 18.6718 164.231 18.2991 164.057 17.8831C163.893 17.4585 163.81 17.0121 163.81 16.5441C163.81 15.8941 163.953 15.3005 164.239 14.7631C164.534 14.2258 164.95 13.7968 165.487 13.4761C166.033 13.1468 166.675 12.9821 167.411 12.9821C168.157 12.9821 168.794 13.1468 169.322 13.4761C169.851 13.7968 170.254 14.2258 170.531 14.7631C170.817 15.2918 170.96 15.8638 170.96 16.4791C170.96 16.5831 170.956 16.6915 170.947 16.8041C170.939 16.9081 170.93 16.9948 170.921 17.0641H165.656C165.691 17.4108 165.791 17.7141 165.955 17.9741C166.129 18.2341 166.345 18.4335 166.605 18.5721C166.874 18.7021 167.16 18.7671 167.463 18.7671C167.81 18.7671 168.135 18.6848 168.438 18.5201C168.75 18.3468 168.963 18.1215 169.075 17.8441L170.57 18.2601C170.406 18.6068 170.167 18.9145 169.855 19.1831C169.552 19.4518 169.192 19.6641 168.776 19.8201C168.36 19.9675 167.901 20.0411 167.398 20.0411ZM165.617 15.9591H169.179C169.145 15.6125 169.045 15.3135 168.88 15.0621C168.724 14.8021 168.516 14.6028 168.256 14.4641C167.996 14.3168 167.706 14.2431 167.385 14.2431C167.073 14.2431 166.787 14.3168 166.527 14.4641C166.276 14.6028 166.068 14.8021 165.903 15.0621C165.747 15.3135 165.652 15.6125 165.617 15.9591Z" fill="#F8F9FA"/>
<defs>
<filter id="filter0_d_166_18" x="0" y="0.911133" width="230" height="38" filterUnits="userSpaceOnUse" color-interpolation-filters="sRGB">
<feFlood flood-opacity="0" result="BackgroundImageFix"/>
<feColorMatrix in="SourceAlpha" type="matrix" values="0 0 0 0 0 0 0 0 0 0 0 0 0 0 0 0 0 0 127 0" result="hardAlpha"/>
<feOffset dy="4"/>
<feGaussianBlur stdDeviation="2"/>
<feComposite in2="hardAlpha" operator="out"/>
<feColorMatrix type="matrix" values="0 0 0 0 0 0 0 0 0 0 0 0 0 0 0 0 0 0 0.25 0"/>
<feBlend mode="normal" in2="BackgroundImageFix" result="effect1_dropShadow_166_18"/>
<feBlend mode="normal" in="SourceGraphic" in2="effect1_dropShadow_166_18" result="shape"/>
</filter>
</defs>
</svg>
